<?xml version="1.0" encoding="iso-8859-1"?>
<svg xmlns="http://www.w3.org/2000/svg" width="17" height="15" viewBox="0 0 17 15" fill="none" class="">
    <g>
        <path d="M12.7209 8.6791C12.6269 8.85629 12.3731 8.85629 12.2791 8.6791L10.9768 6.22269C10.9534 6.1785 10.9172 6.14235 10.873 6.11892L8.41661 4.81658C8.23941 4.72263 8.23941 4.46877 8.41661 4.37483L10.873 3.07249C10.9172 3.04906 10.9534 3.01291 10.9768 2.96872L12.2791 0.512309C12.3731 0.335115 12.6269 0.335115 12.7209 0.51231L14.0232 2.96872C14.0466 3.01291 14.0828 3.04906 14.127 3.07249L16.5834 4.37483C16.7606 4.46877 16.7606 4.72264 16.5834 4.81658L14.127 6.11892C14.0828 6.14235 14.0466 6.1785 14.0232 6.22269L12.7209 8.6791Z" fill="#084A7E"/>
        <path d="M9.76518 9.98214C9.76518 7.28274 7.58108 5.0957 4.88654 5.0957C2.192 5.0957 0.19932 7.09721 0.0201754 9.63319C-0.0252244 9.74623 0.0201698 13.7094 0.0201698 13.8397C0.0201698 14.3828 0.459449 14.8226 1.00179 14.8226C1.12695 14.8226 5.2252 14.8895 5.33563 14.8465C7.81912 14.6192 9.76518 12.5279 9.76518 9.98214Z" fill="#FF6200"/>
    </g>
</svg>